<svg width="141" height="19" viewBox="0 0 141 19" fill="none" xmlns="http://www.w3.org/2000/svg">
<path d="M1.01671e-05 17.9355V0.241915H2.1426V16.0349H10.3674V17.9355H1.01671e-05ZM27.9249 9.08873C27.9249 10.9549 27.588 12.5676 26.9141 13.9268C26.2402 15.2861 25.3158 16.3344 24.1408 17.0716C22.9659 17.8088 21.6239 18.1775 20.1149 18.1775C18.6058 18.1775 17.2638 17.8088 16.0889 17.0716C14.9139 16.3344 13.9895 15.2861 13.3156 13.9268C12.6417 12.5676 12.3048 10.9549 12.3048 9.08873C12.3048 7.22261 12.6417 5.60991 13.3156 4.25063C13.9895 2.89135 14.9139 1.8431 16.0889 1.10586C17.2638 0.368627 18.6058 9.84212e-06 20.1149 9.84212e-06C21.6239 9.84212e-06 22.9659 0.368627 24.1408 1.10586C25.3158 1.8431 26.2402 2.89135 26.9141 4.25063C27.588 5.60991 27.9249 7.22261 27.9249 9.08873ZM25.8515 9.08873C25.8515 7.55667 25.5952 6.26363 25.0825 5.20961C24.5757 4.15559 23.8874 3.35788 23.0177 2.81648C22.1538 2.27507 21.1861 2.00437 20.1149 2.00437C19.0436 2.00437 18.0731 2.27507 17.2034 2.81648C16.3394 3.35788 15.6511 4.15559 15.1385 5.20961C14.6317 6.26363 14.3782 7.55667 14.3782 9.08873C14.3782 10.6208 14.6317 11.9138 15.1385 12.9679C15.6511 14.0219 16.3394 14.8196 17.2034 15.361C18.0731 15.9024 19.0436 16.1731 20.1149 16.1731C21.1861 16.1731 22.1538 15.9024 23.0177 15.361C23.8874 14.8196 24.5757 14.0219 25.0825 12.9679C25.5952 11.9138 25.8515 10.6208 25.8515 9.08873ZM31.4218 0.241915L36.6746 15.1364H36.8819L42.1347 0.241915H44.381L37.8841 17.9355H35.6724L29.1755 0.241915H31.4218ZM47.137 17.9355V0.241915H57.8153V2.1426H49.2795V8.12111H57.2624V10.0218H49.2795V16.0349H57.9536V17.9355H47.137ZM61.6772 9.08873V17.9355H60.6059V9.08873H61.6772ZM68.6633 11.3004C68.6114 10.8627 68.4012 10.5229 68.0326 10.281C67.664 10.0391 67.2118 9.91812 66.6762 9.91812C66.2845 9.91812 65.9418 9.98148 65.6481 10.1082C65.3572 10.2349 65.1297 10.4091 64.9656 10.6309C64.8043 10.8526 64.7237 11.1046 64.7237 11.3868C64.7237 11.623 64.7798 11.826 64.8921 11.9959C65.0073 12.1629 65.1542 12.3026 65.3327 12.4149C65.5113 12.5244 65.6985 12.6151 65.8943 12.6871C66.0901 12.7562 66.2701 12.8123 66.4343 12.8555L67.3328 13.0974C67.5632 13.1579 67.8195 13.2414 68.1017 13.348C68.3868 13.4545 68.6589 13.6 68.9181 13.7843C69.1802 13.9657 69.3962 14.199 69.5661 14.4841C69.736 14.7692 69.821 15.1191 69.821 15.5338C69.821 16.0118 69.6957 16.4438 69.4451 16.8297C69.1975 17.2156 68.8346 17.5223 68.3566 17.7498C67.8814 17.9773 67.304 18.0911 66.6243 18.0911C65.9908 18.0911 65.4422 17.9888 64.9785 17.7844C64.5178 17.5799 64.1549 17.2948 63.89 16.929C63.6279 16.5633 63.4796 16.1385 63.445 15.6547H64.5509C64.5797 15.9888 64.692 16.2652 64.8878 16.4841C65.0865 16.7001 65.3371 16.8614 65.6395 16.9679C65.9447 17.0716 66.273 17.1234 66.6243 17.1234C67.0333 17.1234 67.4005 17.0572 67.7259 16.9247C68.0513 16.7894 68.309 16.6022 68.4991 16.3632C68.6892 16.1213 68.7842 15.839 68.7842 15.5165C68.7842 15.2228 68.7021 14.9837 68.538 14.7994C68.3738 14.6151 68.1579 14.4654 67.89 14.3502C67.6222 14.235 67.3328 14.1342 67.0218 14.0478L65.9332 13.7368C65.242 13.5381 64.6949 13.2544 64.2917 12.8858C63.8885 12.5172 63.6869 12.0348 63.6869 11.4387C63.6869 10.9433 63.8208 10.5114 64.0887 10.1427C64.3594 9.77125 64.7222 9.48327 65.1772 9.2788C65.6351 9.07145 66.1463 8.96778 66.7107 8.96778C67.2809 8.96778 67.7878 9.07001 68.2313 9.27448C68.6748 9.47607 69.0261 9.75253 69.2853 10.1039C69.5474 10.4552 69.6856 10.8541 69.7 11.3004H68.6633ZM72.6536 17.9355V0.241915H78.8395C80.072 0.241915 81.0886 0.455022 81.8892 0.881236C82.6898 1.30169 83.2859 1.86901 83.6776 2.58321C84.0692 3.29165 84.2651 4.07784 84.2651 4.94179C84.2651 5.70206 84.1297 6.32986 83.859 6.82519C83.5941 7.32052 83.2427 7.71218 82.805 8.00016C82.373 8.28814 81.9036 8.50125 81.3968 8.63948V8.81227C81.9382 8.84683 82.4825 9.03689 83.0296 9.38247C83.5768 9.72805 84.0347 10.2234 84.4033 10.8685C84.7719 11.5135 84.9562 12.3026 84.9562 13.2357C84.9562 14.1227 84.7546 14.9204 84.3515 15.6288C83.9483 16.3372 83.3118 16.8988 82.4421 17.3135C81.5724 17.7282 80.4407 17.9355 79.0468 17.9355H72.6536ZM74.7962 16.0349H79.0468C80.4464 16.0349 81.44 15.7642 82.0274 15.2228C82.6207 14.6756 82.9173 14.0132 82.9173 13.2357C82.9173 12.6367 82.7647 12.0837 82.4594 11.5769C82.1542 11.0643 81.7193 10.6554 81.1549 10.3501C80.5904 10.0391 79.9223 9.88356 79.1505 9.88356H74.7962V16.0349ZM74.7962 8.01744H78.7704C79.4154 8.01744 79.9972 7.89072 80.5155 7.6373C81.0397 7.38388 81.4544 7.02678 81.7596 6.56601C82.0706 6.10523 82.2262 5.56383 82.2262 4.94179C82.2262 4.16423 81.9554 3.50475 81.414 2.96335C80.8726 2.41618 80.0144 2.1426 78.8395 2.1426H74.7962V8.01744ZM88.4768 17.9355V0.241915H90.6194V16.0349H98.8442V17.9355H88.4768ZM104.304 0.241915V17.9355H102.162V0.241915H104.304ZM122.631 0.241915V17.9355H120.557L110.916 4.04328H110.743V17.9355H108.6V0.241915H110.674L120.35 14.1687H120.523V0.241915H122.631ZM132.378 17.9355H126.918V0.241915H132.62C134.337 0.241915 135.805 0.596133 137.026 1.30457C138.247 2.00725 139.183 3.01806 139.834 4.33702C140.485 5.65022 140.81 7.22261 140.81 9.05417C140.81 10.8973 140.482 12.484 139.825 13.8145C139.169 15.1392 138.213 16.1587 136.957 16.8729C135.702 17.5813 134.175 17.9355 132.378 17.9355ZM129.061 16.0349H132.24C133.703 16.0349 134.915 15.7526 135.877 15.1882C136.839 14.6238 137.556 13.8203 138.028 12.7778C138.501 11.7353 138.737 10.4941 138.737 9.05417C138.737 7.62578 138.504 6.3961 138.037 5.36512C137.571 4.32838 136.874 3.53355 135.946 2.98063C135.019 2.42194 133.864 2.1426 132.482 2.1426H129.061V16.0349Z" fill="#111111"/>
</svg>
